<svg id="visual" viewBox="0 0 1000 600" width="1000" height="600" xmlns="http://www.w3.org/2000/svg" xmlns:xlink="http://www.w3.org/1999/xlink" version="1.1"><rect x="0" y="0" width="1000" height="600" fill="#ffffff"></rect><defs><linearGradient id="grad1_0" x1="40%" y1="100%" x2="100%" y2="0%"><stop offset="16.666666666666664%" stop-color="#408b94" stop-opacity="1"></stop><stop offset="83.33333333333334%" stop-color="#408b94" stop-opacity="1"></stop></linearGradient></defs><defs><linearGradient id="grad1_1" x1="40%" y1="100%" x2="100%" y2="0%"><stop offset="16.666666666666664%" stop-color="#408b94" stop-opacity="1"></stop><stop offset="83.33333333333334%" stop-color="#5f9ba3" stop-opacity="1"></stop></linearGradient></defs><defs><linearGradient id="grad1_2" x1="40%" y1="100%" x2="100%" y2="0%"><stop offset="16.666666666666664%" stop-color="#7aabb1" stop-opacity="1"></stop><stop offset="83.33333333333334%" stop-color="#5f9ba3" stop-opacity="1"></stop></linearGradient></defs><defs><linearGradient id="grad1_3" x1="40%" y1="100%" x2="100%" y2="0%"><stop offset="16.666666666666664%" stop-color="#7aabb1" stop-opacity="1"></stop><stop offset="83.33333333333334%" stop-color="#95bcc1" stop-opacity="1"></stop></linearGradient></defs><defs><linearGradient id="grad1_4" x1="40%" y1="100%" x2="100%" y2="0%"><stop offset="16.666666666666664%" stop-color="#b0ccd0" stop-opacity="1"></stop><stop offset="83.33333333333334%" stop-color="#95bcc1" stop-opacity="1"></stop></linearGradient></defs><defs><linearGradient id="grad1_5" x1="40%" y1="100%" x2="100%" y2="0%"><stop offset="16.666666666666664%" stop-color="#b0ccd0" stop-opacity="1"></stop><stop offset="83.33333333333334%" stop-color="#cadddf" stop-opacity="1"></stop></linearGradient></defs><defs><linearGradient id="grad1_6" x1="40%" y1="100%" x2="100%" y2="0%"><stop offset="16.666666666666664%" stop-color="#e4eeef" stop-opacity="1"></stop><stop offset="83.33333333333334%" stop-color="#cadddf" stop-opacity="1"></stop></linearGradient></defs><defs><linearGradient id="grad1_7" x1="40%" y1="100%" x2="100%" y2="0%"><stop offset="16.666666666666664%" stop-color="#e4eeef" stop-opacity="1"></stop><stop offset="83.33333333333334%" stop-color="#ffffff" stop-opacity="1"></stop></linearGradient></defs><defs><linearGradient id="grad2_0" x1="0%" y1="100%" x2="60%" y2="0%"><stop offset="16.666666666666664%" stop-color="#408b94" stop-opacity="1"></stop><stop offset="83.33333333333334%" stop-color="#408b94" stop-opacity="1"></stop></linearGradient></defs><defs><linearGradient id="grad2_1" x1="0%" y1="100%" x2="60%" y2="0%"><stop offset="16.666666666666664%" stop-color="#5f9ba3" stop-opacity="1"></stop><stop offset="83.33333333333334%" stop-color="#408b94" stop-opacity="1"></stop></linearGradient></defs><defs><linearGradient id="grad2_2" x1="0%" y1="100%" x2="60%" y2="0%"><stop offset="16.666666666666664%" stop-color="#5f9ba3" stop-opacity="1"></stop><stop offset="83.33333333333334%" stop-color="#7aabb1" stop-opacity="1"></stop></linearGradient></defs><defs><linearGradient id="grad2_3" x1="0%" y1="100%" x2="60%" y2="0%"><stop offset="16.666666666666664%" stop-color="#95bcc1" stop-opacity="1"></stop><stop offset="83.33333333333334%" stop-color="#7aabb1" stop-opacity="1"></stop></linearGradient></defs><defs><linearGradient id="grad2_4" x1="0%" y1="100%" x2="60%" y2="0%"><stop offset="16.666666666666664%" stop-color="#95bcc1" stop-opacity="1"></stop><stop offset="83.33333333333334%" stop-color="#b0ccd0" stop-opacity="1"></stop></linearGradient></defs><defs><linearGradient id="grad2_5" x1="0%" y1="100%" x2="60%" y2="0%"><stop offset="16.666666666666664%" stop-color="#cadddf" stop-opacity="1"></stop><stop offset="83.33333333333334%" stop-color="#b0ccd0" stop-opacity="1"></stop></linearGradient></defs><defs><linearGradient id="grad2_6" x1="0%" y1="100%" x2="60%" y2="0%"><stop offset="16.666666666666664%" stop-color="#cadddf" stop-opacity="1"></stop><stop offset="83.33333333333334%" stop-color="#e4eeef" stop-opacity="1"></stop></linearGradient></defs><defs><linearGradient id="grad2_7" x1="0%" y1="100%" x2="60%" y2="0%"><stop offset="16.666666666666664%" stop-color="#ffffff" stop-opacity="1"></stop><stop offset="83.33333333333334%" stop-color="#e4eeef" stop-opacity="1"></stop></linearGradient></defs><g transform="translate(1000, 600)"><path d="M-466.5 0C-461.2 -62.2 -456 -124.3 -431 -178.5C-406 -232.7 -361.2 -278.9 -314 -314C-266.7 -349 -216.9 -372.8 -164.2 -396.3C-111.4 -419.9 -55.7 -443.2 0 -466.5L0 0Z" fill="#f2f6f7"></path><path d="M-408.2 0C-403.6 -54.4 -399 -108.8 -377.1 -156.2C-355.2 -203.6 -316.1 -244.1 -274.7 -274.7C-233.4 -305.4 -189.8 -326.2 -143.6 -346.8C-97.5 -367.4 -48.7 -387.8 0 -408.2L0 0Z" fill="#d7e5e7"></path><path d="M-349.9 0C-345.9 -46.6 -342 -93.2 -323.2 -133.9C-304.5 -174.5 -270.9 -209.2 -235.5 -235.5C-200 -261.7 -162.7 -279.6 -123.1 -297.3C-83.6 -314.9 -41.8 -332.4 0 -349.9L0 0Z" fill="#bdd4d8"></path><path d="M-291.5 0C-288.3 -38.8 -285 -77.7 -269.4 -111.6C-253.7 -145.4 -225.8 -174.3 -196.2 -196.2C-166.7 -218.1 -135.6 -233 -102.6 -247.7C-69.6 -262.4 -34.8 -277 0 -291.5L0 0Z" fill="#a2c4c8"></path><path d="M-233.2 0C-230.6 -31.1 -228 -62.2 -215.5 -89.3C-203 -116.4 -180.6 -139.5 -157 -157C-133.3 -174.5 -108.5 -186.4 -82.1 -198.2C-55.7 -209.9 -27.9 -221.6 0 -233.2L0 0Z" fill="#88b3b9"></path><path d="M-174.9 0C-173 -23.3 -171 -46.6 -161.6 -66.9C-152.2 -87.3 -135.5 -104.6 -117.7 -117.7C-100 -130.9 -81.3 -139.8 -61.6 -148.6C-41.8 -157.5 -20.9 -166.2 0 -174.9L0 0Z" fill="#6da3aa"></path><path d="M-116.6 0C-115.3 -15.5 -114 -31.1 -107.7 -44.6C-101.5 -58.2 -90.3 -69.7 -78.5 -78.5C-66.7 -87.2 -54.2 -93.2 -41 -99.1C-27.9 -105 -13.9 -110.8 0 -116.6L0 0Z" fill="#50939b"></path><path d="M-58.3 0C-57.7 -7.8 -57 -15.5 -53.9 -22.3C-50.7 -29.1 -45.2 -34.9 -39.2 -39.2C-33.3 -43.6 -27.1 -46.6 -20.5 -49.5C-13.9 -52.5 -7 -55.4 0 -58.3L0 0Z" fill="#408b94"></path></g><g transform="translate(0, 0)"><path d="M466.5 0C469.1 69.7 471.8 139.4 431 178.5C390.1 217.6 305.8 226 256.7 256.7C207.6 287.3 193.8 340.1 156.9 378.8C120 417.5 60 442 0 466.5L0 0Z" fill="#f2f6f7"></path><path d="M408.2 0C410.5 61 412.8 122 377.1 156.2C341.4 190.4 267.5 197.8 224.6 224.6C181.6 251.4 169.6 297.6 137.3 331.4C105 365.3 52.5 386.7 0 408.2L0 0Z" fill="#d7e5e7"></path><path d="M349.9 0C351.9 52.3 353.9 104.6 323.2 133.9C292.6 163.2 229.3 169.5 192.5 192.5C155.7 215.5 145.3 255.1 117.7 284.1C90 313.1 45 331.5 0 349.9L0 0Z" fill="#bdd4d8"></path><path d="M291.5 0C293.2 43.6 294.9 87.1 269.4 111.6C243.8 136 191.1 141.3 160.4 160.4C129.7 179.6 121.1 212.6 98.1 236.7C75 260.9 37.5 276.2 0 291.5L0 0Z" fill="#a2c4c8"></path><path d="M233.2 0C234.6 34.9 235.9 69.7 215.5 89.3C195.1 108.8 152.9 113 128.3 128.3C103.8 143.7 96.9 170.1 78.5 189.4C60 208.7 30 221 0 233.2L0 0Z" fill="#88b3b9"></path><path d="M174.9 0C175.9 26.1 176.9 52.3 161.6 66.9C146.3 81.6 114.7 84.8 96.3 96.3C77.8 107.7 72.7 127.5 58.8 142C45 156.5 22.5 165.7 0 174.9L0 0Z" fill="#6da3aa"></path><path d="M116.6 0C117.3 17.4 118 34.9 107.7 44.6C97.5 54.4 76.4 56.5 64.2 64.2C51.9 71.8 48.4 85 39.2 94.7C30 104.4 15 110.5 0 116.6L0 0Z" fill="#50939b"></path><path d="M58.3 0C58.6 8.7 59 17.4 53.9 22.3C48.8 27.2 38.2 28.3 32.1 32.1C25.9 35.9 24.2 42.5 19.6 47.3C15 52.2 7.5 55.2 0 58.3L0 0Z" fill="#408b94"></path></g></svg>