<svg id="visual" viewBox="0 0 1000 600" width="1000" height="600" xmlns="http://www.w3.org/2000/svg" xmlns:xlink="http://www.w3.org/1999/xlink" version="1.1"><rect x="0" y="0" width="1000" height="600" fill="#ffffff"></rect><defs><linearGradient id="grad1_0" x1="40%" y1="0%" x2="100%" y2="100%"><stop offset="16.666666666666664%" stop-color="#d67d3e" stop-opacity="1"></stop><stop offset="83.33333333333334%" stop-color="#d67d3e" stop-opacity="1"></stop></linearGradient></defs><defs><linearGradient id="grad1_1" x1="40%" y1="0%" x2="100%" y2="100%"><stop offset="16.666666666666664%" stop-color="#d67d3e" stop-opacity="1"></stop><stop offset="83.33333333333334%" stop-color="#df8f59" stop-opacity="1"></stop></linearGradient></defs><defs><linearGradient id="grad1_2" x1="40%" y1="0%" x2="100%" y2="100%"><stop offset="16.666666666666664%" stop-color="#e8a173" stop-opacity="1"></stop><stop offset="83.33333333333334%" stop-color="#df8f59" stop-opacity="1"></stop></linearGradient></defs><defs><linearGradient id="grad1_3" x1="40%" y1="0%" x2="100%" y2="100%"><stop offset="16.666666666666664%" stop-color="#e8a173" stop-opacity="1"></stop><stop offset="83.33333333333334%" stop-color="#efb48e" stop-opacity="1"></stop></linearGradient></defs><defs><linearGradient id="grad1_4" x1="40%" y1="0%" x2="100%" y2="100%"><stop offset="16.666666666666664%" stop-color="#f5c6aa" stop-opacity="1"></stop><stop offset="83.33333333333334%" stop-color="#efb48e" stop-opacity="1"></stop></linearGradient></defs><defs><linearGradient id="grad1_5" x1="40%" y1="0%" x2="100%" y2="100%"><stop offset="16.666666666666664%" stop-color="#f5c6aa" stop-opacity="1"></stop><stop offset="83.33333333333334%" stop-color="#fad9c6" stop-opacity="1"></stop></linearGradient></defs><defs><linearGradient id="grad1_6" x1="40%" y1="0%" x2="100%" y2="100%"><stop offset="16.666666666666664%" stop-color="#fdece2" stop-opacity="1"></stop><stop offset="83.33333333333334%" stop-color="#fad9c6" stop-opacity="1"></stop></linearGradient></defs><defs><linearGradient id="grad1_7" x1="40%" y1="0%" x2="100%" y2="100%"><stop offset="16.666666666666664%" stop-color="#fdece2" stop-opacity="1"></stop><stop offset="83.33333333333334%" stop-color="#ffffff" stop-opacity="1"></stop></linearGradient></defs><defs><linearGradient id="grad2_0" x1="0%" y1="0%" x2="60%" y2="100%"><stop offset="16.666666666666664%" stop-color="#d67d3e" stop-opacity="1"></stop><stop offset="83.33333333333334%" stop-color="#d67d3e" stop-opacity="1"></stop></linearGradient></defs><defs><linearGradient id="grad2_1" x1="0%" y1="0%" x2="60%" y2="100%"><stop offset="16.666666666666664%" stop-color="#df8f59" stop-opacity="1"></stop><stop offset="83.33333333333334%" stop-color="#d67d3e" stop-opacity="1"></stop></linearGradient></defs><defs><linearGradient id="grad2_2" x1="0%" y1="0%" x2="60%" y2="100%"><stop offset="16.666666666666664%" stop-color="#df8f59" stop-opacity="1"></stop><stop offset="83.33333333333334%" stop-color="#e8a173" stop-opacity="1"></stop></linearGradient></defs><defs><linearGradient id="grad2_3" x1="0%" y1="0%" x2="60%" y2="100%"><stop offset="16.666666666666664%" stop-color="#efb48e" stop-opacity="1"></stop><stop offset="83.33333333333334%" stop-color="#e8a173" stop-opacity="1"></stop></linearGradient></defs><defs><linearGradient id="grad2_4" x1="0%" y1="0%" x2="60%" y2="100%"><stop offset="16.666666666666664%" stop-color="#efb48e" stop-opacity="1"></stop><stop offset="83.33333333333334%" stop-color="#f5c6aa" stop-opacity="1"></stop></linearGradient></defs><defs><linearGradient id="grad2_5" x1="0%" y1="0%" x2="60%" y2="100%"><stop offset="16.666666666666664%" stop-color="#fad9c6" stop-opacity="1"></stop><stop offset="83.33333333333334%" stop-color="#f5c6aa" stop-opacity="1"></stop></linearGradient></defs><defs><linearGradient id="grad2_6" x1="0%" y1="0%" x2="60%" y2="100%"><stop offset="16.666666666666664%" stop-color="#fad9c6" stop-opacity="1"></stop><stop offset="83.33333333333334%" stop-color="#fdece2" stop-opacity="1"></stop></linearGradient></defs><defs><linearGradient id="grad2_7" x1="0%" y1="0%" x2="60%" y2="100%"><stop offset="16.666666666666664%" stop-color="#ffffff" stop-opacity="1"></stop><stop offset="83.33333333333334%" stop-color="#fdece2" stop-opacity="1"></stop></linearGradient></defs><g transform="translate(1000, 0)"><path d="M0 466.5C-62.2 461.2 -124.3 456 -178.5 431C-232.7 406 -278.9 361.2 -314 314C-349 266.7 -372.8 216.9 -396.3 164.2C-419.9 111.4 -443.2 55.7 -466.5 0L0 0Z" fill="#fef5f0"></path><path d="M0 408.2C-54.4 403.6 -108.8 399 -156.2 377.1C-203.6 355.2 -244.1 316.1 -274.7 274.7C-305.4 233.4 -326.2 189.8 -346.8 143.6C-367.4 97.5 -387.8 48.7 -408.2 0L0 0Z" fill="#fce2d4"></path><path d="M0 349.9C-46.6 345.9 -93.2 342 -133.9 323.2C-174.5 304.5 -209.2 270.9 -235.5 235.5C-261.7 200 -279.6 162.7 -297.3 123.1C-314.9 83.6 -332.4 41.8 -349.9 0L0 0Z" fill="#f7d0b8"></path><path d="M0 291.5C-38.8 288.3 -77.7 285 -111.6 269.4C-145.4 253.7 -174.3 225.8 -196.2 196.2C-218.1 166.7 -233 135.6 -247.7 102.6C-262.4 69.6 -277 34.8 -291.5 0L0 0Z" fill="#f2bd9c"></path><path d="M0 233.2C-31.1 230.6 -62.2 228 -89.3 215.5C-116.4 203 -139.5 180.6 -157 157C-174.5 133.3 -186.4 108.5 -198.2 82.1C-209.9 55.7 -221.6 27.9 -233.2 0L0 0Z" fill="#ebaa81"></path><path d="M0 174.9C-23.3 173 -46.6 171 -66.9 161.6C-87.3 152.2 -104.6 135.5 -117.7 117.7C-130.9 100 -139.8 81.3 -148.6 61.6C-157.5 41.8 -166.2 20.9 -174.9 0L0 0Z" fill="#e49866"></path><path d="M0 116.6C-15.5 115.3 -31.1 114 -44.6 107.7C-58.2 101.5 -69.7 90.3 -78.5 78.5C-87.2 66.7 -93.2 54.2 -99.1 41C-105 27.9 -110.8 13.9 -116.6 0L0 0Z" fill="#db864b"></path><path d="M0 58.3C-7.8 57.7 -15.5 57 -22.3 53.9C-29.1 50.7 -34.9 45.2 -39.2 39.2C-43.6 33.3 -46.6 27.1 -49.5 20.5C-52.5 13.9 -55.4 7 -58.3 0L0 0Z" fill="#d67d3e"></path></g><g transform="translate(0, 600)"><path d="M0 -466.5C69.7 -469.1 139.4 -471.8 178.5 -431C217.6 -390.1 226 -305.8 256.7 -256.7C287.3 -207.6 340.1 -193.8 378.8 -156.9C417.5 -120 442 -60 466.5 0L0 0Z" fill="#fef5f0"></path><path d="M0 -408.2C61 -410.5 122 -412.8 156.2 -377.1C190.4 -341.4 197.8 -267.5 224.6 -224.6C251.4 -181.6 297.6 -169.6 331.4 -137.3C365.3 -105 386.7 -52.5 408.2 0L0 0Z" fill="#fce2d4"></path><path d="M0 -349.9C52.3 -351.9 104.6 -353.9 133.9 -323.2C163.2 -292.6 169.5 -229.3 192.5 -192.5C215.5 -155.7 255.1 -145.3 284.1 -117.7C313.1 -90 331.5 -45 349.9 0L0 0Z" fill="#f7d0b8"></path><path d="M0 -291.5C43.6 -293.2 87.1 -294.9 111.6 -269.4C136 -243.8 141.3 -191.1 160.4 -160.4C179.6 -129.7 212.6 -121.1 236.7 -98.1C260.9 -75 276.2 -37.5 291.5 0L0 0Z" fill="#f2bd9c"></path><path d="M0 -233.2C34.9 -234.6 69.7 -235.9 89.3 -215.5C108.8 -195.1 113 -152.9 128.3 -128.3C143.7 -103.8 170.1 -96.9 189.4 -78.5C208.7 -60 221 -30 233.2 0L0 0Z" fill="#ebaa81"></path><path d="M0 -174.9C26.1 -175.9 52.3 -176.9 66.9 -161.6C81.6 -146.3 84.8 -114.7 96.3 -96.3C107.7 -77.8 127.5 -72.7 142 -58.8C156.5 -45 165.7 -22.5 174.9 0L0 0Z" fill="#e49866"></path><path d="M0 -116.6C17.4 -117.3 34.9 -118 44.6 -107.7C54.4 -97.5 56.5 -76.4 64.2 -64.2C71.8 -51.9 85 -48.4 94.7 -39.2C104.4 -30 110.5 -15 116.6 0L0 0Z" fill="#db864b"></path><path d="M0 -58.3C8.7 -58.6 17.4 -59 22.3 -53.9C27.2 -48.8 28.3 -38.2 32.1 -32.1C35.9 -25.9 42.5 -24.2 47.3 -19.6C52.2 -15 55.2 -7.5 58.3 0L0 0Z" fill="#d67d3e"></path></g></svg>